<?xml version="1.0" encoding="UTF-8"?>
<svg xmlns="http://www.w3.org/2000/svg" viewBox="0 0 155.53 29.73">
  <path d="M90.35,34.16a14.31,14.31,0,0,0-5.86,1.16,1,1,0,0,0-.56.91v1.69a.7.7,0,0,0,.64.75c.45,0,.78-.42,1-.56a7.87,7.87,0,0,1,4.62-1.58c2.29,0,2.63,1.5,2.63,3.34v.07c0,.86-.3,1-3.57,1.44-2,.26-6.54,1.16-6.54,5.26,0,3.38,2.71,5.19,5.87,5.19A6.57,6.57,0,0,0,93,50L93,51a.43.43,0,0,0,.38.45h3.42a.44.44,0,0,0,.45-.42V39.31c0-3.05-1.62-5.15-6.92-5.15Zm2.41,13.68c0,.49-1.29,1.81-3,1.81A2.61,2.61,0,0,1,87,46.78c0-2,1.58-3.92,5.77-3.92Zm9.86-19.69c-1.66,0-2.45,1-2.45,2.11a2.23,2.23,0,0,0,2.45,2.26A2.17,2.17,0,0,0,105,30.26,2.12,2.12,0,0,0,102.62,28.15Zm-2.15,6.9v16a.43.43,0,0,0,.38.45h3.62a.44.44,0,0,0,.45-.42v-16a.43.43,0,0,0-.42-.45h-3.65A.43.43,0,0,0,100.47,35.05ZM65.38,50.52c6.34,3,15.35,1.25,15.35-6.34,0-7-12-6.53-12-10.83,0-1.73,1.65-2.9,3.77-2.9a7.79,7.79,0,0,1,4.83,1.74,1.77,1.77,0,0,0,1,.48c.41,0,.52-.26.52-.6V29.88a.61.61,0,0,0-.41-.68,18.21,18.21,0,0,0-6-1c-5,0-7.73,3.1-7.73,6.6,0,7.62,11.77,6,11.77,11.21,0,3.13-4.53,5.32-9.77,1.66-.49-.34-.72-.53-1.06-.53-.64,0-.76.34-.76.68v1.92a.75.75,0,0,0,.46.76Zm43.28-15.47v16a.42.42,0,0,0,.37.45h3.62a.44.44,0,0,0,.46-.42V38.15a7.9,7.9,0,0,1,3.5-1.17c2.5,0,2.65,1.5,2.65,2.79V51.05a.42.42,0,0,0,.37.45h3.63a.44.44,0,0,0,.45-.42V39.39c0-3.06-1.62-5.17-5.25-5.17a11.51,11.51,0,0,0-5.39,1.7H113v-.87a.44.44,0,0,0-.42-.45H109A.42.42,0,0,0,108.66,35.05Zm28.9.12c-4.91-2.05-11.47-1-11.47,4.37,0,6,9.5,4.76,9.5,8,0,2.61-4.49,2.87-7.73.38a1.1,1.1,0,0,0-.72-.3c-.37,0-.6.15-.6.67v1.47a1,1,0,0,0,.57,1c4.18,1.88,11.88,1.92,11.88-5,0-6-9.62-4.6-9.62-7.58,0-2.46,4.71-2.23,7.43-.38a1.66,1.66,0,0,0,.72.3c.37,0,.6-.15.6-.68V36.14a.92.92,0,0,0-.56-1Zm81.27,0c-4.9-2.05-11.47-1-11.47,4.37,0,6,9.51,4.76,9.51,8,0,2.61-4.49,2.87-7.74.38a1.08,1.08,0,0,0-.72-.3c-.37,0-.6.15-.6.67v1.47a1,1,0,0,0,.57,1c4.18,1.88,11.88,1.92,11.88-5,0-6-9.62-4.6-9.62-7.58,0-2.46,4.72-2.23,7.43-.38a1.66,1.66,0,0,0,.72.3c.38,0,.6-.15.6-.68V36.14a.92.92,0,0,0-.56-1Zm-37.05,4.48c0-1.81.64-2.94,4.56-1.92a5.43,5.43,0,0,0,1.21.23.54.54,0,0,0,.49-.53V35.2c0-.37-.26-.67-.75-.79-2.72-.64-4.38.6-5.78,1.92l-.07,0V35.05a.43.43,0,0,0-.43-.45H177.7a.42.42,0,0,0-.37.45v16a.42.42,0,0,0,.37.45h3.62a.44.44,0,0,0,.46-.42V39.65Zm25.2-5c1.78,0,3.78-6.65.49-6.65H205.7c-.42,0-.49.3-.49.53,0,.45,1.13,1.59,1.13,3.13a9.19,9.19,0,0,1-.6,2.64c0,.2.19.35.45.35Zm-9.54,11.61-.23-.71L193.62,35a.54.54,0,0,0-.6-.41h-3.85a.3.3,0,0,0-.34.34,1.81,1.81,0,0,0,.19.6l6.26,15.21c1.06,2.56-2,4.41-5,3.58a4.79,4.79,0,0,0-1.17-.22.52.52,0,0,0-.49.52v2.16c0,.45.3,1,2,1,4,0,6.15-2,8.07-6.83l6.19-15.51a1.62,1.62,0,0,0,.15-.49.34.34,0,0,0-.33-.34H202a.51.51,0,0,0-.52.41l-3.7,10.57-.3.71Zm-23.36,4.76v-16a.43.43,0,0,0-.38-.45h-3.62a.44.44,0,0,0-.45.42V48a8,8,0,0,1-3.51,1.17c-2.49,0-2.64-1.5-2.64-2.79V35.05a.43.43,0,0,0-.38-.45h-3.62A.43.43,0,0,0,159,35V46.71c0,3,1.62,5.17,5.24,5.17a11.52,11.52,0,0,0,5.4-1.7h.07v.87a.44.44,0,0,0,.46.45h3.5a.43.43,0,0,0,.38-.45ZM141,28.68a.43.43,0,0,1,.38-.46H145a.44.44,0,0,1,.45.46v7.5a7.55,7.55,0,0,1,4.94-1.92c3.89,0,6.34,3.39,6.34,7.92,0,5.81-4,9.66-9,9.66a9.71,9.71,0,0,1-6-2,2.05,2.05,0,0,1-.68-1.74V28.68Zm5,20.71a3.85,3.85,0,0,0,2,.41c2.41,0,4.11-2.49,4.11-6.71,0-1.59-.34-6-3.78-6a4.89,4.89,0,0,0-2.9,1.17V48.41a1.06,1.06,0,0,0,.53,1Z" transform="translate(-64.74 -28.03)" style="fill:#233465;fill-rule:evenodd"></path>
</svg>
