<?xml version="1.0" encoding="UTF-8"?>
<svg xmlns="http://www.w3.org/2000/svg" viewBox="0 0 108.26 39.98">
  <path d="M206,41.59c-.22,0-.17.18-.19.31a5.31,5.31,0,0,1-3.39,4.54,10.82,10.82,0,0,1-5.77.67,12.73,12.73,0,0,1-5.39-1.77c-.45-.28-.86-.62-1.28-.94a.43.43,0,0,1-.1-.62c.58-1,1.15-2.07,1.75-3.08.24-.41.71-.46,1.19-.15a13.72,13.72,0,0,0,3.28,1.56,6.6,6.6,0,0,0,2.34.32c.41,0,.82-.11.93-.55s-.17-.72-.52-.94a10.2,10.2,0,0,0-2.32-.83,22.61,22.61,0,0,1-4.29-1.68,4.07,4.07,0,0,1-2.19-4.35,6.5,6.5,0,0,1,5.78-5.65,12,12,0,0,1,6.61.81,8.53,8.53,0,0,1,2.15,1.37.55.55,0,0,1,.14.84c-.67,1-1.31,2.08-2,3.12-.22.35-.44.42-.83.16a10.42,10.42,0,0,0-3.31-1.58,3.46,3.46,0,0,0-1.75-.06.71.71,0,0,0-.34,1.26,2.85,2.85,0,0,0,1.33.64A32.93,32.93,0,0,1,202,36.28a6.12,6.12,0,0,1,3.41,2.6,4,4,0,0,1,.41,1.38c0,.13,0,.3.19.3V41c-.12.06-.12.13,0,.19Z" transform="translate(-97.74 -22.91)" style="fill:#233465"></path>
  <path d="M97.74,44.86c.56-1.33,1-2.69,1.49-4,.23-.64.36-.69.93-.31a3.65,3.65,0,0,0,2.42.69,2.28,2.28,0,0,0,2.08-2.48V25c0-.12,0-.25,0-.37,0-.38.17-.54.54-.54h5.56c.4,0,.55.17.55.56,0,1.23,0,2.46,0,3.69,0,3.89,0,7.78,0,11.67a7.45,7.45,0,0,1-1.19,4.1A6.64,6.64,0,0,1,105.58,47a10.77,10.77,0,0,1-6.39-.68,6.73,6.73,0,0,1-1-.59c-.14-.09-.25-.24-.45-.21Z" transform="translate(-97.74 -22.91)" style="fill:#233465"></path>
  <path d="M193.28,62.89c0-1.74,0-3.49,0-5.23,0-.19-.09-.47.17-.52s.68-.19.91.11.27.16.45,0a2,2,0,0,1,3.06,1.64,2.17,2.17,0,0,1-1.49,2.49,2.08,2.08,0,0,1-1.51-.2v1.66Zm2.91-3.64a.86.86,0,0,0-.36-.84.67.67,0,0,0-.71,0,1.24,1.24,0,0,0,0,1.61.61.61,0,0,0,.66,0A.82.82,0,0,0,196.19,59.25Z" transform="translate(-97.74 -22.91)" style="fill:#233465"></path>
  <path d="M206,41.22c-.12-.06-.12-.13,0-.19Z" transform="translate(-97.74 -22.91)" style="fill:#233465"></path>
  <path d="M161.32,39.28q.69-2.79,1.36-5.58c.36-1.47.72-3,1.07-4.42a.7.7,0,0,1,.78-.58h6.08c.54,0,.65.14.49.65l-3.32,10.37c-.74,2.32-1.45,4.65-2.21,7a10.55,10.55,0,0,1-2.64,4.59,7.59,7.59,0,0,1-4.46,1.91A11.68,11.68,0,0,1,154,52.8a6.34,6.34,0,0,1-2.31-1.18.63.63,0,0,1-.21-.83c.59-1.17,1.18-2.33,1.75-3.51.15-.3.31-.26.55-.12a6.26,6.26,0,0,0,2.44,1c1.73.23,3-.32,3.49-2.14.11-.39,0-.54-.42-.52-.69,0-1.37,0-2.06,0a.64.64,0,0,1-.71-.52c-.73-2.26-1.47-4.51-2.22-6.77q-1.42-4.26-2.84-8.52c-.34-1-.32-1,.72-1h5.65c.74,0,.85.06,1,.74q1.2,4.81,2.38,9.61C161.2,39.14,161.19,39.24,161.32,39.28Z" transform="translate(-97.74 -22.91)" style="fill:#233465"></path>
  <path d="M183,39.91c-1.79,0-3.59,0-5.38,0-.42,0-.47.17-.4.51a2.67,2.67,0,0,0,2.72,2.22,3.26,3.26,0,0,0,3.1-1.51c.15-.25.36-.21.57-.15l4.18,1.3c.38.12.39.33.21.64a8.42,8.42,0,0,1-5.68,4.26,10.08,10.08,0,0,1-6.47-.58,8.27,8.27,0,0,1-4.14-4.1,9.73,9.73,0,0,1-.95-4.29c0-3.06.85-5.84,3.3-7.9a8.15,8.15,0,0,1,4-1.83,9.85,9.85,0,0,1,6.1.76,8.67,8.67,0,0,1,4.75,6.47,11.52,11.52,0,0,1,.12,3.66c-.05.43-.22.56-.62.56C186.58,39.9,184.78,39.91,183,39.91Zm-3.19-4h2.48c.11,0,.32.08.28-.17A2.77,2.77,0,0,0,179.63,33a2.82,2.82,0,0,0-2.55,2.53c-.07.32,0,.33.29.33Z" transform="translate(-97.74 -22.91)" style="fill:#233465"></path>
  <path d="M122.73,28a9.81,9.81,0,1,1-9.83,9.25A9.79,9.79,0,0,1,122.73,28Zm3.18,12.93a2.48,2.48,0,0,0-.1-.87,4.39,4.39,0,0,0-4.51-3.53,4.31,4.31,0,0,0-3.3,1.78,3.24,3.24,0,0,0-.76,2.25,3.18,3.18,0,0,0,2,2.79,14.7,14.7,0,0,0,2.1.77C123.88,44.82,125.91,43.42,125.91,40.88Zm-2.44-8a3.5,3.5,0,0,0-.35-1.76.86.86,0,0,0-1.44-.35,4.63,4.63,0,0,0-1.74,3c-.19,1.06.3,1.63,1.48,1.91a1.52,1.52,0,0,0,1.78-1.14A4.61,4.61,0,0,0,123.47,32.93Zm4.12,1c0-.2,0-.41,0-.61a1.26,1.26,0,0,0-.67-1.19,1.24,1.24,0,0,0-1.24.34A5,5,0,0,0,123.93,35a1.68,1.68,0,0,0,3,1.29A4.48,4.48,0,0,0,127.59,33.88Zm2,3.51c.09-.91-.49-1.24-1.3-.86a4.12,4.12,0,0,0-1.89,1.8,1.18,1.18,0,0,0,.35,1.57c.69.5,1.25.52,1.76,0A4,4,0,0,0,129.57,37.39Zm-13-2v.28a1.3,1.3,0,0,0,.85,1.2,1.4,1.4,0,0,0,1.66-.59,3.53,3.53,0,0,0-.68-3.42.59.59,0,0,0-.9.07A3.38,3.38,0,0,0,116.54,35.43Z" transform="translate(-97.74 -22.91)" style="fill:#233465"></path>
  <path d="M140.88,34.87V45.94c0,.63-.16.79-.81.79h-5.14c-.71,0-.87-.17-.87-.89v-22c0-.69.19-.89.88-.89h5.14c.63,0,.79.17.79.8Q140.89,29.29,140.88,34.87Z" transform="translate(-97.74 -22.91)" style="fill:#233465"></path>
  <path d="M143.22,34.77V23.71c0-.66.14-.8.79-.8h5.24c.55,0,.79.24.79.79V45.92c0,.54-.25.81-.79.81H144c-.58,0-.75-.18-.75-.76Z" transform="translate(-97.74 -22.91)" style="fill:#233465"></path>
  <path d="M156.05,58.59c0-.78,0-1.56,0-2.33,0-.38.14-.49.5-.49,1.09,0,1.09,0,1.09,1.06,0,.54,0,.54.47.31a1.4,1.4,0,0,1,2.05,1.25c0,.87,0,1.74,0,2.61,0,.31-.1.41-.41.4-1.43,0-1.16.2-1.19-1.17,0-.45,0-.9,0-1.36,0-.26,0-.49-.34-.52a.54.54,0,0,0-.53.37,1,1,0,0,0-.06.46c0,.62,0,1.25,0,1.87,0,.26-.09.35-.35.35-1.48,0-1.21.21-1.24-1.18C156,59.68,156.05,59.13,156.05,58.59Z" transform="translate(-97.74 -22.91)" style="fill:#233465"></path>
  <path d="M166.34,58.72V56.49c0-.22,0-.47.27-.48a6.35,6.35,0,0,1,2.84.26,1.68,1.68,0,0,1,1,1.84,1.93,1.93,0,0,1-1.74,1.6c-.74,0-.74,0-.75.8,0,1,.1.88-.9.88-.76,0-.76,0-.76-.76Zm2-.4c.3,0,.5-.09.52-.4s-.3-.47-.59-.52-.26.19-.25.37S167.87,58.35,168.33,58.32Z" transform="translate(-97.74 -22.91)" style="fill:#233465"></path>
  <path d="M179.34,58.73c0-.78,0-1.55,0-2.33,0-.3.11-.42.41-.42a17,17,0,0,1,2.14.1,1.79,1.79,0,0,1,1.57,2,1.84,1.84,0,0,1-1.77,1.61c-.68,0-.67,0-.68.72,0,1.11.13,1-1,1-.79,0-.69.09-.7-.7Zm1.6-.85c0,.22-.05.47.36.44s.54-.07.55-.41-.28-.48-.59-.52S180.94,57.62,180.94,57.88Z" transform="translate(-97.74 -22.91)" style="fill:#233465"></path>
  <path d="M190.52,61.49a2.14,2.14,0,0,1-2.29-2.25,2.29,2.29,0,1,1,2.29,2.25Zm0-1.4a.75.75,0,0,0,.79-.83.84.84,0,0,0-.8-.85.8.8,0,0,0-.78.85A.76.76,0,0,0,190.52,60.09Z" transform="translate(-97.74 -22.91)" style="fill:#233465"></path>
  <path d="M203.32,59.72h-1.08c-.33,0-.32.19-.18.4a.76.76,0,0,0,1.08.08,1.34,1.34,0,0,1,1.3.16c.07.1,0,.17,0,.25a2.34,2.34,0,0,1-2.37.87,2,2,0,0,1-1.55-1.67,2.19,2.19,0,1,1,4.29-.43c0,.26-.13.35-.38.34Zm-.79-.91c.2-.12.58.15.61-.17a.6.6,0,0,0-1.19,0C202,58.94,202.33,58.71,202.53,58.81Z" transform="translate(-97.74 -22.91)" style="fill:#233465"></path>
  <path d="M163.55,59.72h-1c-.1,0-.23,0-.28.1a.32.32,0,0,0,.09.3.82.82,0,0,0,1.06.13c.14-.09.22-.3.43-.23s.56.17.84.29c.13,0,.06.18,0,.28a1.42,1.42,0,0,1-.43.48,2.34,2.34,0,0,1-2.85-.07,2.4,2.4,0,0,1-.35-3,2,2,0,0,1,2.08-.95,1.94,1.94,0,0,1,1.72,1.37,2.55,2.55,0,0,1,.18,1c0,.28-.12.39-.4.38Zm-.71-.91c.19-.1.55.15.57-.21s-.27-.48-.61-.48-.59.18-.56.48S162.65,58.69,162.84,58.81Z" transform="translate(-97.74 -22.91)" style="fill:#233465"></path>
  <path d="M186.56,59.72h-1.07c-.33,0-.32.19-.18.4a.77.77,0,0,0,1.11.06,1.42,1.42,0,0,1,1.22.17c.08.12,0,.23-.07.34a2.15,2.15,0,0,1-2.2.79,1.84,1.84,0,0,1-1.54-1.26,2.38,2.38,0,0,1,.86-2.92,2.16,2.16,0,0,1,3.25,1.51l.06.36c0,.33,0,.59-.46.56S186.89,59.72,186.56,59.72Zm-.69-.93c.15-.1.51.19.52-.18a.5.5,0,0,0-.58-.48.81.81,0,0,0-.31.06.5.5,0,0,0-.33.47c0,.23.29.09.44.13Z" transform="translate(-97.74 -22.91)" style="fill:#233465"></path>
  <path d="M173.57,59.72h-1c-.12,0-.27,0-.31.13a.35.35,0,0,0,.13.33.8.8,0,0,0,1,.06,1.19,1.19,0,0,1,1.26.07c.12.13.06.25,0,.37a2.28,2.28,0,0,1-2.34.79,2.07,2.07,0,0,1-1.51-1.71,2.25,2.25,0,0,1,1-2.46A2.13,2.13,0,0,1,175,59a1.73,1.73,0,0,0,0,.32c.08.3-.06.4-.34.39Zm-.8-.93H173c.14,0,.35.08.41-.11s-.12-.33-.26-.46a.63.63,0,0,0-1,.42c0,.3.32.09.48.15Z" transform="translate(-97.74 -22.91)" style="fill:#233465"></path>
  <path d="M153.61,56c.59,0,1.19,0,1.78,0,.28,0,.4.09.37.38,0,.11,0,.22,0,.32,0,.76-.06.8-.81.77-.43,0-.53.13-.51.53,0,1,0,2,0,2.94,0,.36-.11.49-.48.48-1.41,0-1.17.2-1.19-1.17,0-.78,0-1.56,0-2.34,0-.3-.07-.44-.41-.44-1.06,0-1.05,0-1-1.07,0-.31.14-.4.43-.4Z" transform="translate(-97.74 -22.91)" style="fill:#233465"></path>
  <path d="M175.68,59.73V58.42c0-.17,0-.3-.24-.31-.44,0-.29-.36-.31-.59s0-.44.32-.43.24-.24.23-.4c0-.35,0-.58.46-.55.13,0,.27-.06.41-.06.86,0,.74-.06.72.65,0,.24,0,.4.33.37s.38,0,.34.26.15.68-.28.72-.39.26-.38.53c0,.77,0,1.53,0,2.29,0,.35-.08.5-.46.5-1.14,0-1.14,0-1.14-1.11Z" transform="translate(-97.74 -22.91)" style="fill:#233465"></path>
  <path d="M199.93,58.58c0,.78,0,1.56,0,2.34,0,.34-.06.5-.45.48-1.34,0-1.12.19-1.14-1.13s0-2.68,0-4c0-.39.09-.56.52-.55,1.27,0,1.06-.14,1.07,1.06C199.93,57.37,199.93,58,199.93,58.58Z" transform="translate(-97.74 -22.91)" style="fill:#233465"></path>
</svg>
