<?xml version="1.0" encoding="UTF-8"?>
<svg xmlns="http://www.w3.org/2000/svg" viewBox="0 0 14.81 8.46">
  <path d="M8.88,6.72c0,.72-.25,1.85-1.17,1.73a2,2,0,0,1-.84-.37A5.82,5.82,0,0,0,5.5,7.29c-.85-.35-2.69-.35-2.14-1.75.53-1.11,3-2.75,4.27-2.44.62.22.76,1.29.94,1.85A6.33,6.33,0,0,1,8.88,6.72ZM4.24,6.63a.53.53,0,0,0,.58-.74c-.11-.23-.38-.25-.58-.35s0-.18.13-.15a.45.45,0,0,0,.2,0,.17.17,0,0,0,.21-.17c0-.29-.5-.31-.72-.2a.46.46,0,0,0,0,.87c.11.06.37.05.34.22a.12.12,0,0,1-.13.1c-.16,0-.41-.16-.52,0S4,6.66,4.24,6.63ZM5,5.77V6.4a.21.21,0,0,0,.12.2c.38.1.25-.43.27-.65s0-.23.18-.19.08.06.09.12,0,.41,0,.61a.19.19,0,0,0,.37,0,1.62,1.62,0,0,0,0-.22c0-.22.05-.49-.09-.68a.47.47,0,0,0-.53-.13c-.05,0-.07,0-.07,0s0-.38-.13-.43A.19.19,0,0,0,5,5a.2.2,0,0,0,0,.15Zm2.86,1c0-.15,0-.23.15-.15.5.09.76-.53.54-.93a.48.48,0,0,0-.65-.22.09.09,0,0,1-.11,0,.18.18,0,0,0-.29.15V6.85A.17.17,0,0,0,7.66,7C7.82,7,7.85,6.89,7.84,6.76ZM6.78,6.62c.76,0,.78-1.25,0-1.23A.62.62,0,0,0,6.78,6.62Z" transform="translate(0 0)" style="fill:#233465"></path>
  <path d="M5.34.84c.91.13.77,1.08.52,1.73a2.07,2.07,0,0,1-.28.58A.85.85,0,0,1,4.24,3,1.58,1.58,0,0,1,5.34.84Z" transform="translate(0 0)" style="fill:#233465"></path>
  <path d="M9.68,5.19A.78.78,0,0,1,9,4a2.3,2.3,0,0,1,1.91-1.08c.41.09.13.92,0,1.19C10.71,4.59,10.33,5.23,9.68,5.19Z" transform="translate(0 0)" style="fill:#233465"></path>
  <path d="M9,3.19c-.56,0-1.14-.48-.82-1S8.71,1.06,9.32.92c.79-.15,1.1.53.86,1.21A1.57,1.57,0,0,1,9,3.19Z" transform="translate(0 0)" style="fill:#233465"></path>
  <path d="M6.3,1.55c0-.48.2-1.25.64-1.48a1,1,0,0,1,1.3.68A2.27,2.27,0,0,1,7.45,2.4C6.92,2.76,6.24,2.1,6.3,1.55Z" transform="translate(0 0)" style="fill:#233465"></path>
  <path d="M13.79,5.8V5.22A.22.22,0,0,1,13.87,5a.17.17,0,0,1,.27.07,1.17,1.17,0,0,1,0,.32s-.05.45.07.31.24-.35.43-.26-.05.33-.16.44,0,.06,0,.11.47.39.25.58a.2.2,0,0,1-.22,0,3.61,3.61,0,0,1-.25-.3s0-.11-.09-.09,0,.08,0,.12a.58.58,0,0,1,0,.19.18.18,0,0,1-.19.12C13.69,6.59,13.82,6,13.79,5.8Z" transform="translate(0 0)" style="fill:#233465"></path>
  <path d="M1.87,6.16H1.62s-.05,0-.06,0,0,0,0,.06a.26.26,0,0,0,.28,0A.49.49,0,0,0,2,6.24a.15.15,0,0,1,.18.23.62.62,0,0,1-1-.32A.57.57,0,0,1,2,5.5a.56.56,0,0,1,.32.41c.09.29-.22.25-.41.25Zm-.14-.24c.07,0,.28,0,.19-.09a.22.22,0,0,0-.38,0,.13.13,0,0,0,0,.06S1.67,5.91,1.73,5.92Z" transform="translate(0 0)" style="fill:#233465"></path>
  <path d="M0,5.86c0-.68-.14-.79.66-.72a.5.5,0,0,1,.11,1C.41,6.2.3,5.93.33,6.45a.15.15,0,0,1-.3.06A3.46,3.46,0,0,1,0,5.86Zm.33-.08s0,0,.06,0a.11.11,0,0,0,.13,0h0c.05,0,.07,0,.09-.05l0,0a.15.15,0,0,0,0-.24s0,0,0,0l-.06,0c-.07-.05-.15,0-.23,0S.31,5.69.33,5.78Z" transform="translate(0 0)" style="fill:#233465"></path>
  <path d="M10.62,6a.57.57,0,0,1,1.09-.25A.58.58,0,1,1,10.62,6Zm.79,0c0-.17-.16-.34-.31-.25a.34.34,0,0,0-.08.42C11.18,6.43,11.42,6.25,11.41,6Z" transform="translate(0 0)" style="fill:#233465"></path>
  <path d="M12.55,5.91a1.17,1.17,0,0,1,0-.32.17.17,0,0,1,.34,0,5.43,5.43,0,0,0,0,.57c0,.06.08.1.15.1.32,0-.09-.88.35-.84.25,0,.16.7.12.88s-.46.36-.71.27S12.53,6.19,12.55,5.91Z" transform="translate(0 0)" style="fill:#233465"></path>
  <path d="M10.15,5.44c.18,0,.5.15.31.35s-.17,0-.24,0-.34.14-.29.32c.09.37.43,0,.56.2s-.09.29-.23.31C9.38,6.82,9.29,5.4,10.15,5.44Z" transform="translate(0 0)" style="fill:#233465"></path>
  <path d="M2.58,6.16c0-.11.06-.36-.08-.39a.15.15,0,0,1,0-.29c.14,0,0-.19.09-.29s.37-.09.34.13,0,.12.12.15a.16.16,0,0,1,.11.17c0,.07,0,.12-.13.13s-.1.05-.1.14,0,.4,0,.6a.21.21,0,0,1-.13.13c-.28.05-.22-.31-.23-.48Z" transform="translate(0 0)" style="fill:#233465"></path>
  <path d="M9.21,6.63C9.1,6.65,9,6.5,9,6.42a.27.27,0,0,1,.22-.22A.22.22,0,0,1,9.21,6.63Z" transform="translate(0 0)" style="fill:#233465"></path>
  <path d="M12.08,6.63a.23.23,0,0,1-.21-.21.27.27,0,0,1,.2-.22A.22.22,0,0,1,12.08,6.63Z" transform="translate(0 0)" style="fill:#233465"></path>
  <path d="M.6,5.44c-.39,0-.21.06-.27.34,0-.09,0-.33,0-.36S.53,5.39.6,5.44Z" transform="translate(0 0)" style="fill:#233465"></path>
  <path d="M.68,5.75a.26.26,0,0,0,0-.24A.15.15,0,0,1,.68,5.75Z" transform="translate(0 0)" style="fill:#233465"></path>
  <path d="M.39,5.82H.52A.11.11,0,0,1,.39,5.82Z" transform="translate(0 0)" style="fill:#233465"></path>
  <path d="M.57,5.82l.09-.05C.64,5.82.62,5.84.57,5.82Z" transform="translate(0 0)" style="fill:#233465"></path>
  <path d="M.68,5.5s0,0,0,0S.68,5.48.68,5.5Z" transform="translate(0 0)" style="fill:#233465"></path>
  <path d="M8,6.27c-.2,0-.26-.29-.15-.43a.17.17,0,0,1,.29,0C8.3,6,8.24,6.27,8,6.27Z" transform="translate(0 0)" style="fill:#233465"></path>
  <path d="M6.58,6c0-.22.26-.37.37-.14s-.12.59-.33.31A.31.31,0,0,1,6.58,6Z" transform="translate(0 0)" style="fill:#233465"></path>
</svg>
