<?xml version="1.0" encoding="UTF-8"?>
<svg xmlns="http://www.w3.org/2000/svg" viewBox="0 0 210.53 62.8">
  <path d="M229.16,11.83H201.58l-7.29,29a18.42,18.42,0,0,0-.31-3c-.22-1.29-.58-3-1-4.42a23.32,23.32,0,0,0-1.35-3.78,25.55,25.55,0,0,0-2.33-4.06,42.29,42.29,0,0,0-3.57-4.44A21.47,21.47,0,0,0,182.32,18a34.75,34.75,0,0,0-4.83-3,31.36,31.36,0,0,0-4.94-1.88,26.38,26.38,0,0,0-3.65-.84c-1.13-.18-2.26-.33-3.39-.44a10.29,10.29,0,0,0-1.42-.08l-21.44,0V46.43a25.67,25.67,0,0,0-1.48-3,20.09,20.09,0,0,0-3.21-4,17.08,17.08,0,0,0-4.36-3A38,38,0,0,0,127,34.07a43.3,43.3,0,0,0-7.29-1.27L116,32.45A4.4,4.4,0,0,1,114.2,32a5.17,5.17,0,0,1-1.49-1.11,2.38,2.38,0,0,1-.58-1.14,2.9,2.9,0,0,1,.47-2.41,3.12,3.12,0,0,1,1-.85,4.52,4.52,0,0,1,1.74-.49,25,25,0,0,1,3.87-.2,26.16,26.16,0,0,1,4.67.59c1.68.35,3.54.85,5,1.31a27.5,27.5,0,0,1,3.53,1.35l7-13a18.32,18.32,0,0,0-3.28-1.55,45.7,45.7,0,0,0-6.29-2,40.48,40.48,0,0,0-8-1,61.09,61.09,0,0,0-7.84.42,24,24,0,0,0-5.52,1.17,31.06,31.06,0,0,0-6.33,3,21.53,21.53,0,0,0-4.28,3.62A12,12,0,0,0,96.07,22a27.37,27.37,0,0,0-1.58,3.1,19.72,19.72,0,0,0-1.08,3.45,17.11,17.11,0,0,0,0,7,16.62,16.62,0,0,0,1.16,3.74,16.1,16.1,0,0,0,2.12,3.32A19,19,0,0,0,99.06,45a14.32,14.32,0,0,0,3.3,2.1,51.51,51.51,0,0,0,5.72,2.25,29.44,29.44,0,0,0,4.15,1.06c1.19.23,2.39.42,3.17.54.54.08,1.08.16,1.63.21a8.81,8.81,0,0,1,1.61.3,4.18,4.18,0,0,1,1.49.88,3.22,3.22,0,0,1,.77,1.22,3.37,3.37,0,0,1,.22,1.43,5.94,5.94,0,0,1-.4,1.81,3.22,3.22,0,0,1-1,1.36,6.18,6.18,0,0,1-1.63,1,3.8,3.8,0,0,1-1.9.18c-.88-.08-2.16-.29-3-.47a7.5,7.5,0,0,1-1.78-.52c-1.87-.74-3.73-1.47-5.55-2.32s-3.57-1.8-5.34-2.76l-5,8.15L81,11.9l-27.38,0L37.24,74.16l19,0,3.15-12.67H77.2l3.54,12.7,18.4-.05-1.28-4.34a18.75,18.75,0,0,0,2.08,1,41.44,41.44,0,0,0,5.16,1.9,44,44,0,0,0,7.46,1.46,33.76,33.76,0,0,0,6.6,0,32.14,32.14,0,0,0,4.85-.83,36.15,36.15,0,0,0,8.61-3.3,27.13,27.13,0,0,0,4.21-2.82A27.65,27.65,0,0,0,140,64.06a16.28,16.28,0,0,0,1.59-2.12c.4-.62.77-1.26,1.11-1.91l0,14.2c7.93,0,15.86,0,23.78,0a8.14,8.14,0,0,0,1.79-.12,31.14,31.14,0,0,0,4.06-.85,39.33,39.33,0,0,0,5.47-2,31.38,31.38,0,0,0,4.76-2.68,28.54,28.54,0,0,0,3.69-3,38.73,38.73,0,0,0,3.37-3.64l-2.94,12.15,18.13,0,3.45-12.66,17.28,0,4,12.63,18.12,0-18.6-62.28ZM62.83,48.08,67.5,28.56l5.67,19.55-10.34,0Zm113-4.75a19.66,19.66,0,0,1-.79,5.28,17,17,0,0,1-2.15,4.48,6.93,6.93,0,0,1-2.25,2.19,13.34,13.34,0,0,1-2.81,1.3,7.84,7.84,0,0,1-2.31.34c-1.56,0-3.4,0-5.12,0V28.6c.55,0,1.1,0,1.89-.05a14.8,14.8,0,0,1,3.09.23,19.93,19.93,0,0,1,3.8,1.21,5.41,5.41,0,0,1,2.35,1.81,24.62,24.62,0,0,1,2.56,3.86,14.86,14.86,0,0,1,1.33,3.7A15.73,15.73,0,0,1,175.79,43.33Zm35.46,4.79,4.89-19.76,5.31,19.76Z" transform="translate(-37.24 -11.5)" style="fill:#233465;fill-rule:evenodd"></path>
</svg>
