<?xml version="1.0" encoding="UTF-8"?>
<svg xmlns="http://www.w3.org/2000/svg" viewBox="0 0 285 85.8">
  <path d="M176.8,67.1c-16.5,12.2-40.5,18.7-61.2,18.7A111,111,0,0,1,40.8,57.3c-1.5-1.4-.2-3.3,1.7-2.2a150.31,150.31,0,0,0,74.8,19.8,148.83,148.83,0,0,0,57.1-11.7c2.8-1.1,5.1,1.9,2.4,3.9Z" style="fill:#233465;fill-rule:evenodd"></path>
  <path d="M183.7,59.2c-2.1-2.7-14-1.3-19.3-.6-1.6.2-1.9-1.2-.4-2.2,9.5-6.7,25-4.7,26.8-2.5s-.5,17.8-9.4,25.2c-1.4,1.1-2.7.5-2.1-1C181.3,73.1,185.8,62,183.7,59.2Z" style="fill:#233465;fill-rule:evenodd"></path>
  <path d="M164.7,9.4V2.9a1.52,1.52,0,0,1,1.6-1.6h29A1.67,1.67,0,0,1,197,2.9V8.4c0,.9-.8,2.1-2.2,4.1l-15,21.4c5.6-.1,11.5.7,16.5,3.5a3,3,0,0,1,1.5,2.5v6.9c0,1-1,2.1-2.1,1.5a33.08,33.08,0,0,0-30.6.1,1.57,1.57,0,0,1-2.1-1.5V40.3a7.47,7.47,0,0,1,1.1-4.4L181.5,11H166.4a1.67,1.67,0,0,1-1.7-1.6ZM59,49.7H50.2a1.81,1.81,0,0,1-1.6-1.5V3a1.67,1.67,0,0,1,1.7-1.6h8.2a1.63,1.63,0,0,1,1.6,1.5V8.8h.2C62.4,3.1,66.5.4,71.9.4s9,2.7,11.4,8.4A12.53,12.53,0,0,1,95.5.4a12.4,12.4,0,0,1,10.2,5c2.8,3.8,2.2,9.3,2.2,14.2V48.2a1.67,1.67,0,0,1-1.7,1.6H97.5a1.72,1.72,0,0,1-1.6-1.6v-24c0-1.9.2-6.7-.2-8.5-.7-3-2.6-3.9-5.2-3.9a5.89,5.89,0,0,0-5.3,3.7c-.9,2.3-.8,6.1-.8,8.7v24a1.67,1.67,0,0,1-1.7,1.6H73.9a1.72,1.72,0,0,1-1.6-1.6v-24c0-5,.8-12.5-5.4-12.5s-6.1,7.2-6.1,12.5v24A1.76,1.76,0,0,1,59,49.7ZM222,.4c13.1,0,20.2,11.2,20.2,25.5,0,13.8-7.8,24.8-20.2,24.8-12.8,0-19.8-11.2-19.8-25.2S209.2.4,222,.4Zm0,9.3c-6.5,0-6.9,8.9-6.9,14.4s-.1,17.3,6.8,17.3,7.2-9.5,7.2-15.3c0-3.8-.2-8.4-1.3-12-1-3.2-3-4.4-5.8-4.4Zm37.1,40h-8.8a1.72,1.72,0,0,1-1.6-1.6V2.8a1.73,1.73,0,0,1,1.7-1.5h8.2a1.71,1.71,0,0,1,1.6,1.3V9.5h.2c2.5-6.2,5.9-9.1,12-9.1a11.65,11.65,0,0,1,10.3,5.3c2.3,3.6,2.3,9.7,2.3,14.1V48.3a1.65,1.65,0,0,1-1.7,1.4h-8.8a1.82,1.82,0,0,1-1.6-1.4V23.7c0-5,.6-12.2-5.5-12.2a5.79,5.79,0,0,0-5.1,3.6,20.76,20.76,0,0,0-1.4,8.6V48.1a1.83,1.83,0,0,1-1.8,1.6ZM141.6,28.1c0,3.4.1,6.3-1.6,9.4a7.08,7.08,0,0,1-6.1,4c-3.4,0-5.4-2.6-5.4-6.4,0-7.5,6.7-8.9,13.1-8.9Zm8.9,21.5a1.81,1.81,0,0,1-2.1.2,22.08,22.08,0,0,1-5.1-5.9c-4.8,4.9-8.3,6.4-14.5,6.4-7.4,0-13.2-4.6-13.2-13.7A15,15,0,0,1,125,22.2c4.8-2.1,11.5-2.5,16.6-3.1V18c0-2.1.2-4.6-1.1-6.4a5.92,5.92,0,0,0-4.9-2.3c-3.4,0-6.4,1.7-7.1,5.3-.2.8-.7,1.6-1.5,1.6l-8.5-.9a1.54,1.54,0,0,1-1.3-1.8C119.2,3.1,128.5,0,136.9,0c4.3,0,9.9,1.1,13.3,4.4,4.3,4,3.9,9.4,3.9,15.2V33.3c0,4.1,1.7,5.9,3.3,8.2.6.8.7,1.8,0,2.3-1.9,1.5-5.1,4.3-6.9,5.8ZM26.1,28.1c0,3.4.1,6.3-1.6,9.4a7.08,7.08,0,0,1-6.1,4c-3.4,0-5.4-2.6-5.4-6.4,0-7.5,6.7-8.9,13.1-8.9Zm8.8,21.5a1.81,1.81,0,0,1-2.1.2,22.08,22.08,0,0,1-5.1-5.9c-4.8,4.9-8.3,6.4-14.5,6.4C5.8,50.3,0,45.7,0,36.6A15,15,0,0,1,9.4,22.2c4.8-2.1,11.5-2.5,16.6-3.1V18c0-2.1.2-4.6-1.1-6.4A5.92,5.92,0,0,0,20,9.3c-3.4,0-6.4,1.7-7.1,5.3-.2.8-.7,1.6-1.5,1.6l-8.5-.9a1.54,1.54,0,0,1-1.3-1.8C3.6,3.1,12.9,0,21.3,0c4.3,0,9.9,1.1,13.3,4.4,4.3,4,3.9,9.4,3.9,15.2V33.3c0,4.1,1.7,5.9,3.3,8.2.6.8.7,1.8,0,2.3-1.9,1.5-5.1,4.3-6.9,5.8Z" style="fill:#233465;fill-rule:evenodd"></path>
</svg>
