<?xml version="1.0" encoding="UTF-8"?>
<svg xmlns="http://www.w3.org/2000/svg" viewBox="0 0 140.62 72.04">
  <path d="M125.84,78.92c1.08,0,2-.54,2-1.62,0-.87-.54-1.3-1.62-1.52-.87-.21-1.09-.32-1.09-.65s.22-.43.65-.43a2.25,2.25,0,0,1,1.3.54l.54-.86a3,3,0,0,0-1.95-.65,1.63,1.63,0,0,0-1.83,1.51c0,1.08.65,1.3,1.73,1.62.86.22,1.08.33,1.08.65s-.33.54-.76.54a2.09,2.09,0,0,1-1.51-.65l-.65.76a3.11,3.11,0,0,0,2.16.76m2.71-4.44h1.19v-1h-1.19Zm0,4.33h1.08v-4h-1.08Zm2.16,0h1.08V76.54a.68.68,0,0,1,.76-.76c.43,0,.65.33.65.76v2.27h1.08v-2.6A1.37,1.37,0,0,0,133,74.7a1.62,1.62,0,0,0-1.19.65v-.54h-1.08Zm6.38.11a2.11,2.11,0,0,0,1.62-.76l-.65-.65c-.32.22-.54.43-.86.43a1,1,0,0,1-1-1.08,1.07,1.07,0,0,1,1-1.08,1.12,1.12,0,0,1,.86.43l.65-.75a1.86,1.86,0,0,0-1.62-.65,2,2,0,0,0-2.05,2,2,2,0,0,0,2.05,2.06m4.11,0a2,2,0,0,0,1.62-.76l-.65-.54a1.18,1.18,0,0,1-1,.43.86.86,0,0,1-1-.75H143V77a2,2,0,0,0-1.95-2.16,2,2,0,0,0-1.94,2,1.93,1.93,0,0,0,2,2.06m-1-2.38c.11-.54.43-.87.86-.87s.76.33.87.87ZM146,78.81H147V73.62h-.76l-1.4.43.21,1,.87-.21Zm4.11.11c1.19,0,2.05-.54,2.05-1.52a1.18,1.18,0,0,0-.86-1.19,1.08,1.08,0,0,0,.65-1.08c0-.75-.76-1.4-1.84-1.4s-1.84.65-1.84,1.4a1.08,1.08,0,0,0,.65,1.08,1.31,1.31,0,0,0-.87,1.3c0,.87.87,1.41,2.06,1.41m0-3.14a.66.66,0,1,1,.76-.65c0,.44-.33.65-.76.65m0,2.16c-.54,0-.87-.32-.87-.64s.33-.65.87-.65.87.21.87.65-.33.64-.87.64m4.43,1c1.52,0,2.28-1.19,2.28-2.81a2.33,2.33,0,0,0-.65-2,2.07,2.07,0,0,0-3.46,1.3,1.67,1.67,0,0,0,1.83,1.73,1.83,1.83,0,0,0,1.09-.33c-.11.65-.44,1.19-1.09,1.19a1.41,1.41,0,0,1-1.08-.43l-.65.87a4.19,4.19,0,0,0,1.73.43m.22-2.81a.77.77,0,1,1,0-1.52.78.78,0,0,1,.87.76c.1.43-.33.76-.87.76m4.65,2.81c1.52,0,2.27-1.19,2.27-2.81a2.3,2.3,0,0,0-.65-2,1.75,1.75,0,0,0-1.51-.54,1.79,1.79,0,0,0-1.95,1.84,1.68,1.68,0,0,0,1.84,1.73,1.8,1.8,0,0,0,1.08-.33c-.1.65-.43,1.19-1.08,1.19a1.4,1.4,0,0,1-1.08-.43l-.65.87a3.74,3.74,0,0,0,1.73.43m.22-2.81a.77.77,0,1,1,0-1.52.77.77,0,1,1,0,1.52" transform="translate(-72.19 -6.88)" style="fill:#233465"></path>
  <path d="M145.53,47.12a2.92,2.92,0,1,1-2.92-2.92,2.84,2.84,0,0,1,2.92,2.92m62.19,11.79c-.22-.11-.32-.11-.54-.22-1.62-.54-2.6-.86-2.6-1.62V57c0-.65.76-1.08,1.63-1.08A7.8,7.8,0,0,1,210,57.07h.11c.11,0,.11,0,.22-.11l1.73-3v-.11c0-.1,0-.1-.11-.21a11.48,11.48,0,0,0-5.63-1.52c-3.89,0-6.49,1.95-6.49,5.09v.11c0,3.13,2.49,4.32,5.2,5.08.21.11.43.11.65.22,1.73.54,2.38.86,2.38,1.62v.11c-.11.65-.65,1-1.74,1a8.6,8.6,0,0,1-4.86-1.73h-.11c-.11,0-.11,0-.22.11l-1.84,2.92v.11c0,.1,0,.1.11.21a11.2,11.2,0,0,0,6.6,2.38c4.33,0,6.81-1.84,6.81-5.19V64c.11-2.92-2.48-4.22-5.08-5.08M160.67,64c0,3.35-2.6,5.3-6.81,5.3a10.93,10.93,0,0,1-6.6-2.38c-.11,0-.11-.11-.11-.21v-.11L149,63.67c0-.11.11-.11.21-.11h.11a8.37,8.37,0,0,0,4.87,1.73c1.08,0,1.73-.32,1.73-1v-.11c0-.76-.76-1.19-2.38-1.62-.22-.11-.43-.11-.65-.22-2.81-.76-5.19-1.95-5.19-5.08s2.49-5.09,6.49-5.09a11.74,11.74,0,0,1,5.62,1.52c.11,0,.11.1.11.21V54l-1.73,3c0,.11-.11.11-.21.11h-.11A8.81,8.81,0,0,0,154.07,56c-1,0-1.62.43-1.62,1.08v.11c0,.75,1,1.08,2.6,1.62.21.11.32.11.54.22,2.48.65,5.08,1.94,5.08,5m-27.91,5.09h-4.32a.24.24,0,0,1-.22-.22V53.07a.24.24,0,0,1,.22-.22h4.11a.23.23,0,0,1,.21.22V55a5.44,5.44,0,0,1,4.33-2.38h.65a.24.24,0,0,1,.22.22v4.22c0,.11,0,.11-.11.22a.16.16,0,0,1-.22,0h-.76a3.75,3.75,0,0,0-3.67,2.92,13.23,13.23,0,0,0-.22,2.27v6.27c0,.22-.11.33-.22.33M121,68.86V62.59a7.3,7.3,0,0,1,.33-2.38A3.84,3.84,0,0,1,125,57.29h1a.38.38,0,0,0,.11-.22V52.85a.24.24,0,0,0-.22-.22h-.65A5.12,5.12,0,0,0,120.87,55V53.07a.24.24,0,0,0-.22-.22h-4.11a.24.24,0,0,0-.22.22V68.86a.24.24,0,0,0,.22.22h4.33c.1,0,.1-.11.1-.22m-27,.22H89.61a.24.24,0,0,1-.22-.22c0-5-.43-10.6-.54-12.33a42.07,42.07,0,0,0-4.22,7.57c0,.11-.11.11-.22.11H81.93c-.11,0-.22,0-.22-.11a36.27,36.27,0,0,0-4.22-7.57c-.11,1.73-.54,7.35-.54,12.33a.24.24,0,0,1-.21.22H72.41a.24.24,0,0,1-.22-.22c0-6.71.54-15.58,1.62-20.12a.24.24,0,0,1,.22-.22h3.46c.11,0,.11,0,.22.11a37.58,37.58,0,0,1,5.51,8,35.39,35.39,0,0,1,5.52-8,.38.38,0,0,1,.22-.11h3.46a.24.24,0,0,1,.22.22c1.08,4.54,1.62,13.41,1.62,20.12-.11.11-.22.22-.33.22m103.41-.22V58.8c0-4.11-2-6.27-5.74-6.27a6.53,6.53,0,0,0-5,2.16V53.07a.24.24,0,0,0-.22-.22H182.3a.23.23,0,0,0-.21.22V68.86a.23.23,0,0,0,.21.22h4.33a.24.24,0,0,0,.22-.22V61.61a9.59,9.59,0,0,1,.21-1.94,3.8,3.8,0,0,1,3.68-2.82c1.41,0,1.95.65,1.95,2.6v9.3a.23.23,0,0,0,.21.22h4.22c.22.11.22,0,.22-.11M171.16,56.64a4.34,4.34,0,1,0,4,4.32,4.09,4.09,0,0,0-4-4.32m0,12.76c-5.08,0-8.87-3.68-8.87-8.44s3.79-8.43,8.87-8.43S180,56.2,180,61s-3.78,8.44-8.87,8.44M145,68.86V53.07a.24.24,0,0,0-.22-.22h-4.33a.24.24,0,0,0-.21.22V68.86a.24.24,0,0,0,.21.22h4.33a.24.24,0,0,0,.22-.22M105.18,56.64a4.34,4.34,0,1,0,4,4.32,4.09,4.09,0,0,0-4-4.32m0,12.76c-5.08,0-8.87-3.68-8.87-8.44s3.79-8.43,8.87-8.43,8.87,3.67,8.87,8.43a8.62,8.62,0,0,1-8.87,8.44" transform="translate(-72.19 -6.88)" style="fill:#233465"></path>
  <path d="M156.34,46.14C152.45,47.55,149,45,149,45s1-4.22,4.87-5.63,7.35,1.19,7.35,1.19a8.58,8.58,0,0,1-4.87,5.62m10.28-19.68a8.46,8.46,0,0,0-7.46.11c-3.57,2.05-3.79,6.38-3.79,6.38a8.46,8.46,0,0,0,7.46-.11c3.57-2.05,3.79-6.38,3.79-6.38M150.29,36a8.12,8.12,0,0,1-5.95,4.32A8.29,8.29,0,0,1,143.8,33a8.11,8.11,0,0,1,5.95-4.33,8.3,8.3,0,0,1,.54,7.36m-26.07,4.54s1,4.22,4.87,5.62S136.44,45,136.44,45s-1-4.22-4.87-5.63a8.32,8.32,0,0,0-7.35,1.19m1.84-14c3.57,2.05,3.78,6.38,3.78,6.38a8.46,8.46,0,0,1-7.46-.11c-3.57-2.05-3.79-6.38-3.79-6.38s3.9-1.95,7.47.11m4.76-6.93s-.87,4.22,2.05,7.14S140,28.84,140,28.84s.87-4.22-2-7.14-7.14-2.06-7.14-2.06m15.36-6.27a8.23,8.23,0,0,1-3.57,6.49A8.23,8.23,0,0,1,139,13.37a8.23,8.23,0,0,1,3.57-6.49c-.11,0,3.57,2.27,3.57,6.49m7.13,9.3a3,3,0,1,1-6.05,0,3.09,3.09,0,0,1,3-3,3,3,0,0,1,3,3M139.69,35.11a3,3,0,0,1-3,3,3.1,3.1,0,0,1-3-3,3,3,0,0,1,3-3,3.1,3.1,0,0,1,3,3" transform="translate(-72.19 -6.88)" style="fill:#233465"></path>
</svg>
