<?xml version="1.0" encoding="UTF-8"?>
<svg xmlns="http://www.w3.org/2000/svg" viewBox="0 0 70.95 62.11">
  <path d="M158.24,11.84H126.83a4.4,4.4,0,0,0-4.39,4.39V47.64A4.39,4.39,0,0,0,126.83,52h35.73V16.23A4.31,4.31,0,0,0,158.24,11.84ZM142.69,45.58a14,14,0,0,1,.07-27.93c7.93,0,12.38,4.71,12.38,8.9a6.74,6.74,0,0,1-7.8,6.84,5.42,5.42,0,0,1-4.65-6.13c.39-3,3.36-5.23,6.19-4.39a2.82,2.82,0,0,0-1.09,2.26A2.86,2.86,0,0,0,153,26.81c1.68-2,.51-6.26-5.1-7a8.24,8.24,0,0,0-9.09,7.29,8.54,8.54,0,0,0,7.42,9.67A8.83,8.83,0,0,0,156,28.1c0-.58.58,1.8.58,3.61A13.9,13.9,0,0,1,142.69,45.58Z" transform="translate(-107.02 -11.84)" style="fill:#233465"></path>
  <path d="M171.33,60.8A6.58,6.58,0,1,0,178,67.38a6.59,6.59,0,0,0-6.65-6.58m0,2.26a4.26,4.26,0,0,1,4.26,4.32,4.26,4.26,0,1,1-4.26-4.32m-30.7,8.64a4.31,4.31,0,0,1-4.26-4.32,4.26,4.26,0,1,1,8.52,0,4.31,4.31,0,0,1-4.26,4.32m4.26-10.58v1.42h-.07a6.1,6.1,0,0,0-4.25-1.74,6.58,6.58,0,1,0,0,13.16,5.73,5.73,0,0,0,4.19-1.81h.06v1.36h2.39V61.12ZM156,71.7a4.31,4.31,0,0,1-4.26-4.32,4.26,4.26,0,1,1,8.52,0A4.31,4.31,0,0,1,156,71.7m4.19-16.51v7.35h-.06a5.63,5.63,0,0,0-4.19-1.81,6.58,6.58,0,1,0,0,13.16,5.76,5.76,0,0,0,4.19-1.8h.06v1.35h2.39V55.19ZM131.79,70.34a4.18,4.18,0,0,1-3.09,1.36,4.31,4.31,0,0,1-4.26-4.32,4.26,4.26,0,0,1,4.26-4.32,4.17,4.17,0,0,1,3.09,1.35L133,62.22a6.77,6.77,0,0,0-4.25-1.49,6.58,6.58,0,1,0,0,13.16A7,7,0,0,0,133,72.41l-1.16-2.07ZM113.67,60.8a6.58,6.58,0,1,0,6.64,6.58,6.58,6.58,0,0,0-6.64-6.58m0,2.26a4.27,4.27,0,0,1,4.26,4.32,4.26,4.26,0,1,1-8.52,0,4.26,4.26,0,0,1,4.26-4.32" transform="translate(-107.02 -11.84)" style="fill:#233465"></path>
</svg>
