<?xml version="1.0" encoding="UTF-8"?>
<svg xmlns="http://www.w3.org/2000/svg" viewBox="0 0 130.93 37.66">
  <path d="M87.08,55.21H103c.19,0,.19.09,0,.18a22.32,22.32,0,0,0-4.38,3.45c-1.77,1.77-3.17,2.89-6.25,2.89H77.11c-.1,0-.1-.19,0-.19A25.58,25.58,0,0,0,81.3,58,8,8,0,0,1,87.08,55.21Zm104.78,0h16c.1,0,.1.09,0,.18a19.71,19.71,0,0,0-4.38,3.45c-1.86,1.77-3.26,2.89-6.24,2.89H182c-.09,0-.09-.19,0-.19A25.13,25.13,0,0,0,186.17,58,7.77,7.77,0,0,1,191.86,55.21Zm-78.58,0h15.94c.18,0,.18.09,0,.18a22.17,22.17,0,0,0-4.39,3.45c-1.77,1.77-3.16,2.89-6.24,2.89h-15.2c-.18,0-.18-.19-.09-.19A25.35,25.35,0,0,0,107.5,58,8,8,0,0,1,113.28,55.21Zm26.19,0h15.94c.19,0,.19.09,0,.18A22.32,22.32,0,0,0,151,58.84c-1.77,1.77-3.17,2.89-6.15,2.89H129.59c-.09,0-.09-.19-.09-.19A21.66,21.66,0,0,0,133.69,58,8,8,0,0,1,139.47,55.21Zm26.2,0h16c.09,0,.09.09-.09.18a22.32,22.32,0,0,0-4.38,3.45c-1.78,1.77-3.18,2.89-6.16,2.89H155.78c-.09,0-.09-.19,0-.19A25.35,25.35,0,0,0,160,58a7.57,7.57,0,0,1,5.69-2.79Z" transform="translate(-77.04 -24.07)" style="fill:#233465;fill-rule:evenodd"></path>
  <path d="M170.05,24.07c-10.07,0-16.78,5.22-16.78,13.14,0,7.28,6.15,12.12,15.28,12.12a31.38,31.38,0,0,0,8.68-1.21V42.06a9.64,9.64,0,0,1-7.56,3.36c-5.4,0-9.13-3.54-9.13-8.76s3.82-8.86,9.23-8.86a9.41,9.41,0,0,1,7.08,3.08V24.72a37.74,37.74,0,0,0-6.8-.65ZM94.91,28.36c3.73,0,8.2.74,10.07,2.33V24.91H78.5v5.78c1.87-1.59,5.88-2.24,10.16-2.24V44.3c0,2.33-.18,3-1.11,4.19H96c-.93-1.21-1.12-1.86-1.12-4.19ZM122,34a20.17,20.17,0,0,1-5.69.66H114V28.45h3c2.71,0,7.27.56,9,2.15V24.91h-19.3c.93,1.12,1.12,1.86,1.12,4.1V44.3c0,2.33-.19,3-1,4.19h20.51V42.71c-2.8,2.15-8.2,2.15-10.35,2.15h-3V38.24h2.14a20.85,20.85,0,0,1,5.78.74V34Zm28.61-8.39a35.1,35.1,0,0,0-10.16-1.58c-5.59,0-11,1.77-11,7.74,0,10.25,16.78,4.84,16.78,11.18,0,2-3,2.89-5.41,2.89a18,18,0,0,1-11-3.17v5.22a35.14,35.14,0,0,0,10.72,1.5c5.78,0,11.19-1.68,11.19-7.74,0-10.81-16.68-6-16.68-11.19,0-2.14,2.7-2.89,5-2.89,3.91,0,8.2,1.21,10.53,3.55V25.65Zm43.07-1.21c-9,0-15.47,5.22-15.47,12.59s5.78,12,14.26,12c9.14,0,15.47-5,15.47-12.49C207.89,29.29,202.12,24.44,193.63,24.44ZM193,45.51c-4.85,0-7.93-3.91-7.93-8.76S188.13,28,193,28s7.92,3.92,7.92,8.77S197.73,45.51,193,45.51Z" transform="translate(-77.04 -24.07)" style="fill:#233465;fill-rule:evenodd"></path>
</svg>
