<?xml version="1.0" encoding="UTF-8"?>
<svg xmlns="http://www.w3.org/2000/svg" viewBox="0 0 58.4 58.4">
  <path d="M161.54,46.6c-.59,0-.94.46-1,1.51h2.1C162.59,47.18,162.12,46.6,161.54,46.6Z" transform="translate(-113.3 -9.92)" style="fill:#233465"></path>
  <path d="M126.5,30.59a3,3,0,0,0-2.22,1.29v4.79A3.92,3.92,0,0,0,126,37c1.29,0,2.34-1.05,2.34-3.51C128.48,31.53,127.67,30.59,126.5,30.59Z" transform="translate(-113.3 -9.92)" style="fill:#233465"></path>
  <path d="M122.76,50.22a.62.62,0,0,0,.7.7,2.52,2.52,0,0,0,1.17-.47,7,7,0,0,1-.12-1.52C123.11,49.16,122.76,49.63,122.76,50.22Z" transform="translate(-113.3 -9.92)" style="fill:#233465"></path>
  <path d="M165.86,9.92H119.14a5.78,5.78,0,0,0-5.84,5.84V62.48a5.78,5.78,0,0,0,5.84,5.84h46.72a5.78,5.78,0,0,0,5.84-5.84V15.76A5.78,5.78,0,0,0,165.86,9.92Zm-39.25,42.4-1.86-.12-.12-.82a2.72,2.72,0,0,1-2.1.94,1.78,1.78,0,0,1-1.87-1.87c0-1.64,1.17-2.34,3.85-2.57v-.12c0-.58-.35-.81-1.05-.81a7.65,7.65,0,0,0-2.22.46L121,45.89a5.44,5.44,0,0,1,2.8-.46c1.87,0,2.8.58,2.8,2.33Zm4.79-5.14h-1.51v2.57c0,.58.23.82.81.82.24,0,.35,0,.47-.12l.23,1.75c-.23,0-.58.12-1.16.12-1.41,0-2.46-.59-2.46-2.22V47.18h-.93V45.43h.93V43.32l2.11-.35v2.46h1.51Zm-4.55-7.13a7.26,7.26,0,0,1-2.69-.46v3.62l-3.85.7c.11.12.11-16.59.11-16.59h3.39l.24,1.64c.93-.94,2-2,3.62-2,2.57,0,4.55,2,4.55,6.31C132.22,38.07,129.65,40.05,126.85,40.05Zm12.38-13c3.85,0,5.61,2.92,5.61,6.54a2.51,2.51,0,0,1-.12,1h-7.59a2.84,2.84,0,0,0,3.15,2.8,8.39,8.39,0,0,0,4.21-1.28l.35,2.69a8.82,8.82,0,0,1-5,1.4c-3.85,0-6.54-2-6.54-6.54C133.27,29.66,135.84,27.09,139.23,27.09Zm1.28,25.11h-2V48c0-.47-.23-.82-.7-.82a1.86,1.86,0,0,0-1.17.58V52.2h-2.1v-10l2.1-.35v4.43a2.68,2.68,0,0,1,2-.93c1.28,0,1.86.82,1.86,2.1Zm3.86.12a3.2,3.2,0,0,1-3.27-3.51,3.19,3.19,0,0,1,3.27-3.5,3.25,3.25,0,0,1,3.27,3.5A3.2,3.2,0,0,1,144.37,52.32ZM146.94,36V30.48H145.3V27.32h1.64V23.59l3.85-.59v4.32h2.92v3.16h-2.92v4.79c0,1,.47,1.51,1.52,1.51a2.46,2.46,0,0,0,.94-.11l.46,3.15a4,4,0,0,1-2.22.35C148.81,40.17,146.94,39.24,146.94,36ZM157.8,52.2h-2V48c0-.47-.24-.82-.71-.82a1.61,1.61,0,0,0-1.05.58V52.2H152V48c0-.47-.23-.82-.7-.82a1.61,1.61,0,0,0-1,.58V52.2h-2.1V45.43H150l.11.93a3.09,3.09,0,0,1,2.1-1,1.6,1.6,0,0,1,1.64,1,3.05,3.05,0,0,1,2.1-1c1.29,0,1.87.82,1.87,2.1Zm6.78-2.92h-4.09a1.5,1.5,0,0,0,1.63,1.52,4.11,4.11,0,0,0,2.22-.7l.24,1.52a4.9,4.9,0,0,1-2.69.82,3.19,3.19,0,0,1-3.5-3.51c0-2.22,1.4-3.5,3.15-3.5,2.1,0,3,1.52,3,3.5Zm-4.79-9A12,12,0,0,1,154.53,39l.47-2.92a9.92,9.92,0,0,0,4.79,1.52c1.05,0,1.63-.35,1.63-.93s-.35-.94-2.1-1.4c-3.15-.82-4.56-1.64-4.56-4.09s1.76-4,4.91-4a11.53,11.53,0,0,1,4.67.93l-.47,2.92a10,10,0,0,0-4.2-1.17c-.93,0-1.4.35-1.4.82s.35.82,2.1,1.29c3.39.93,4.56,1.75,4.56,4.08C165,38.77,163.17,40.29,159.79,40.29Z" transform="translate(-113.3 -9.92)" style="fill:#233465"></path>
  <path d="M144.37,47.06c-.82,0-1.29.7-1.29,1.75s.47,1.87,1.29,1.87,1.28-.7,1.28-1.87S145.19,47,144.37,47.06Z" transform="translate(-113.3 -9.92)" style="fill:#233465"></path>
  <path d="M139.11,29.66c-1.05,0-1.87.93-2,2.92h4C141,30.59,140.28,29.66,139.11,29.66Z" transform="translate(-113.3 -9.92)" style="fill:#233465"></path>
</svg>
