<svg xmlns="http://www.w3.org/2000/svg" viewBox="0 0 271.47 122.6"><path d="M269.14 31a36.44 36.44 0 00-11.67 2.09c-.93.32-1.85.66-2.77 1s-1.8.78-2.68 1.2c-1.77.86-3.49 1.78-5.16 2.79A74.34 74.34 0 00238.6 44c-.48-1-1-2-1.46-3.06-1.64-3.42-3.37-6.81-5.29-10.12l-.26-.45a3.78 3.78 0 00-7 2.33 14.22 14.22 0 01-.06 4.07 13 13 0 01-.48 2 14.08 14.08 0 01-.79 1.82 12 12 0 01-2.29 3.06A8.68 8.68 0 01218 45.48a5.34 5.34 0 01-2.81.31 4.21 4.21 0 01-2.11-1l-.23-.22-.11-.11s0-.05-.07-.08 0 0-.11-.11l-.22-.22-.05 0 .07.06h0l0 0-.06-.08-.12-.15a8.4 8.4 0 01-.87-1.27 10 10 0 01-.66-1.4 9.23 9.23 0 01-.47-1.49 10 10 0 01-.28-1.56 10.52 10.52 0 01-.08-1.59 12.49 12.49 0 01.4-3.13 14 14 0 01.48-1.47 11.27 11.27 0 01.66-1.35 8.55 8.55 0 01.83-1.23c.16-.18.3-.39.47-.56l.25-.28.27-.25c.18-.19.39-.33.57-.51l.46-.39.54-.31.27-.15.06 0c-.07 0 .19-.09-.15.06h0l.08 0 .33-.2.33-.17a8.89 8.89 0 011.33-.55 7.61 7.61 0 011.39-.29 8.5 8.5 0 013.29.37 13.6 13.6 0 011.84.71c.3.15.61.3.92.47l.45.25a2.67 2.67 0 00.41.21l1.08.37a2.39 2.39 0 002.9-3.34c-.15-.29-.24-.51-.37-.74l-.38-.66a13 13 0 00-.85-1.24 14.77 14.77 0 00-2.1-2.24 14.31 14.31 0 00-5.85-3.1 15 15 0 00-7-.08l-.84.2-.82.25-1.42.51c-.52.23-1.17.54-1.68.81a13.54 13.54 0 00-1.46.89l-.71.49-.68.53c-.46.35-.88.75-1.3 1.14A20.68 20.68 0 00201.61 24a20 20 0 00-2.91 6.11 21 21 0 00-.81 6.48q-1.06 2-2.22 3.92c-.51.86-1 1.71-1.55 2.56-.33-.67-.66-1.34-1-2-.46-.93-.92-1.86-1.39-2.78s-.93-1.86-1.41-2.77c-1-1.85-2-3.67-3-5.48l-.31-.52a4.56 4.56 0 00-8.48 2.79 17.07 17.07 0 01-.06 4.79 14.92 14.92 0 01-.54 2.31 18 18 0 01-.9 2.17 14.89 14.89 0 01-2.64 3.66 11 11 0 01-3.4 2.34 6.77 6.77 0 01-3.37.55A4.89 4.89 0 01165 47.06a6 6 0 01-.55-.47 1.6 1.6 0 01-.23-.24l-.07-.08-.26-.26-.13-.12 0 0s-.11-.1.09.07l0 0 0 0-.15-.17-.28-.36c-.17-.24-.35-.48-.51-.74a14.29 14.29 0 01-1.52-3.37 16.8 16.8 0 01-.45-1.86 18 18 0 01-.23-1.92c0-.64 0-1.29 0-1.93s.12-1.26.21-1.87a13.84 13.84 0 011-3.41 12.53 12.53 0 01.79-1.45 11.07 11.07 0 011-1.26 9.41 9.41 0 011.18-1.09c.21-.17.44-.33.67-.49l.33-.21.12-.08a.61.61 0 01.13-.07l.16-.07.17-.08.08 0h.06l-.1 0 .17-.1c.12-.06.24-.14.36-.19s.5-.22.76-.32a8.24 8.24 0 011.66-.48 13.27 13.27 0 014.14 0 21.86 21.86 0 012.36.47c.4.09.81.21 1.21.33l.61.18a4 4 0 00.55.14l1.42.14a2.93 2.93 0 002-.53 2.89 2.89 0 00.65-4c-.23-.31-.38-.54-.56-.79s-.37-.47-.56-.69c-.37-.45-.77-.88-1.18-1.29A19.67 19.67 0 00177.25 16a18.29 18.29 0 00-11.15-3.21 20.12 20.12 0 00-4.13.67l-.18 0-.21.06-.55.19-1 .36c-.64.25-1.27.54-1.89.85a21 21 0 00-8.85 8.69 23 23 0 00-1.65 3.7 26 26 0 00-1.19 11.6 25.92 25.92 0 00.75 3.79 24.24 24.24 0 001.32 3.66 23.63 23.63 0 001.89 3.45A22.2 22.2 0 00152.86 53c.45.49.94 1 1.44 1.41l.56.48c-1 2.6-7 5.77-11.36 2.35-4.13-3.25-4-10.71-4.76-16.64-1.05-8.28-9.08-5.73-8.5-.15S128.1 63.8 120 61.47c-1.92-.55-3.84-3.08-4.39-9.4-1-11.85 5.71-22.3 13.28-18.76.84.39 2.2 1.06 3.3.51a1.75 1.75 0 00.62-2.28 9 9 0 00-2.59-3.21c-4.89-3.9-9.92-2.54-12.85-1.37a24.75 24.75 0 00-14.49 16.25A25.54 25.54 0 00102 54.94a22.8 22.8 0 003.53 9.19 17.18 17.18 0 006.35 5.74 11.84 11.84 0 007.59 1.3 15.6 15.6 0 006.27-2.53 17.67 17.67 0 003.87-3.7 13.67 13.67 0 002.47-4.83 15.7 15.7 0 004.87 6.09c6.91 4.4 15.84.87 19.49-4.09a26 26 0 002.7-4.52l.48.23A17 17 0 00163.86 59a17.39 17.39 0 004.38.07 18.37 18.37 0 007.64-2.78 22.51 22.51 0 005.51-5 26.64 26.64 0 002.44-3.71c.31 1 .61 2.1.89 3.16.39 1.5.76 3 1.12 4.52-1.15 1.62-2.32 3.25-3.48 4.9l-1.75 2.51L179.73 64l-.88 1.33c-.61.91-1.1 1.72-1.65 2.58l-.85 1.42c-.27.47-.55.93-.81 1.4a76.4 76.4 0 00-5.35 11.74 57 57 0 00-3 12.93 43.5 43.5 0 00-.21 7c0 .6.09 1.2.14 1.79s.13 1.21.24 1.81l.15.91c.06.31.14.66.21 1 .16.75.27 1.12.4 1.63l0 .09.07.25.08.26c.06.18.11.35.17.52.12.35.24.69.38 1a21.14 21.14 0 00.93 2 18.52 18.52 0 002.64 3.71 16.78 16.78 0 003.76 3.08 15.64 15.64 0 004.8 1.87 15.92 15.92 0 002.6.31h1.28l.29 0 .27 0 .54 0a19.83 19.83 0 004.34-.9 20.53 20.53 0 004.09-1.83 21.86 21.86 0 003.59-2.67 20.87 20.87 0 002.91-3.33l.32-.45.33-.52.33-.54L202 112l.1-.19.37-.66 0 0 .12-.24 0-.1.1-.21.21-.43a34.08 34.08 0 002.49-6.91c4-16.87-1.13-36.8-7.57-52.16.89-1.64 1.77-3.31 2.6-5a20.36 20.36 0 002.06 3A19.51 19.51 0 00205 51.45l.72.58.62.44.43.29.39.24c.26.16.54.31.81.45A14 14 0 00215.2 55 14.74 14.74 0 00221.86 53a18.35 18.35 0 004.82-4.15 19.86 19.86 0 001.76-2.47c.19-.31.37-.63.54-1 .6 2 1.14 4 1.64 6-.51.54-1 1.08-1.52 1.64-1.29 1.45-2.55 3-3.75 4.55-.6.79-1.19 1.61-1.76 2.47-.29.42-.56.85-.87 1.35L222 62.71a64.89 64.89 0 00-5 10.89 49.51 49.51 0 00-2.74 12.1 34.83 34.83 0 00.05 6.61c.07.56.13 1.13.23 1.7l.16.86.21.95c.08.36.13.55.19.77l.09.34 0 .16.12.38a18.1 18.1 0 00.75 2 15.81 15.81 0 005.73 6.76 14 14 0 004.6 1.89c.41.08.83.15 1.25.19a6.2 6.2 0 00.62.06l.67 0h1.18l1-.1a17.92 17.92 0 007.88-3 17 17 0 003.17-2.8 8.6 8.6 0 00.67-.8c.22-.27.43-.54.63-.83s.39-.54.6-.9l.31-.52c.1-.16.22-.38.26-.45a32.06 32.06 0 002.52-6.41 40.31 40.31 0 001.14-6.47A55.76 55.76 0 00248 73.71a79.63 79.63 0 00-2.3-11.56 92.42 92.42 0 00-3.33-9.66c.34-.35.67-.7 1-1.05a79.75 79.75 0 017.85-6.87A56.33 56.33 0 01259.94 39a38 38 0 019.62-3.41h0a2.33 2.33 0 00-.46-4.61zm-79.42 75.28c-2.67 2.66-11 4.72-11-10a33.73 33.73 0 011.72-10.63 98.26 98.26 0 016.11-14.82l0 0A12.6 12.6 0 00188 66c.06-.67.09-1.35.09-2 0-.49-.18-1.29.12-1.7.06-.07.13-.08.22.06a2.25 2.25 0 01.22.56c.11.36.3 1 .43 1.46.2.65.2.75.38 1.3.62 2.76 2 8.39 2.92 14.8C193.35 87.69 195.56 100.46 189.72 106.28zm45.82-15.74c-1.22 3.06-3.44 6.69-7.11 5.26-3.38-1.31-2.85-7.71-2.79-9.4a39.72 39.72 0 011.55-9.49 53.65 53.65 0 013.64-9.36l.28-.56 0-.07 0 0s0-.06 0 0l.08-.15h0a14.3 14.3 0 00.61-3 19.52 19.52 0 00.1-2c0-.5-.18-1.29.12-1.7.06-.08.13-.08.22.05a2.25 2.25 0 01.22.56c.11.36.3 1 .43 1.46.19.65.2.75.37 1.3h0C237.24 76 237 86.85 235.54 90.54zM99.32 67.16a187.13 187.13 0 00-3.1-29.58C94.84 30.32 93.2 23 91.61 16q-.8-3.53-1.58-7a27.08 27.08 0 00-1.18-3.7l-.12-.32a3.55 3.55 0 00-1-1.54 3.35 3.35 0 00-3.36-.63c-3.08 1.16-5.46 3.92-7.27 8.43-1.7 4.22-1.54 8.71-1.21 12.15.36 3.9.8 7.85 1.22 11.68s.85 7.73 1.21 11.6l0 .49c.8 8.43 1.63 17.15 2.15 25.77a46.45 46.45 0 01-1 14.73c-.56 2.16-1.57 3.65-2.84 4.2a2.75 2.75 0 01-1.79.12 6.91 6.91 0 001.78-1.29A2.9 2.9 0 0077 87.19c-4.47-7.83-6.8-13.83-10-22.14l-.29-.74c-2-5.12-3.93-10.36-5.8-15.43-1.48-4-3-8.15-4.56-12.21-.27-.69-.49-1.39-.7-2.06-.85-2.72-1.65-5.28-5.15-6a8.61 8.61 0 00-6.94 1.73c-1.17.85-1.16 2.12-1.14 3.24a9 9 0 010 1.18 3.43 3.43 0 000 .64v.22c0 1.39 0 2.78.07 4.17.07 3.09.14 6.28.07 9.42-.12 5.85-.37 10.59-.77 14.91a23.75 23.75 0 01-.85 4.34 4.19 4.19 0 00-.68.11c-1.51.32-.22-1.09-1.3-.52C32.34 71.51 28.37 66.35 27 63.49a57.19 57.19 0 01-4.07-11.23 109.39 109.39 0 01-2-12.95c-.57-4.92-.91-9.57-1.86-13.4-.63-2.55-1.52-5.77-4.23-8-2.87-2.42-5.78-3.38-8.89-3-2 .28-3.27 1.44-3.41 3.19l0 .36a18.75 18.75 0 00-.09 3.09q.24 2.78.46 5.55c.44 5.56.9 11.3 1.59 16.93A108.34 108.34 0 009.56 65.93c1.69 4.94 4.26 11.29 9.18 16.5a16.79 16.79 0 0013.69 5.62 17.32 17.32 0 0012.85-7.93c3.86-5.8 4.56-12.47 4.73-18.23 0-1.38.09-2.76.14-4.14l0-1.47.05.1a9.84 9.84 0 01.42 1c.69 2.07 1.37 4.15 2 6.22 1.35 4.15 2.75 8.45 4.23 12.64s2.65 7.41 3.82 10.39l.06.18h0c.18.45.7 1.84 1 2.73 2.42 7 4.47 10.16 9.13 14.26a14.52 14.52 0 009.58 3.9 12.58 12.58 0 003.52-.5c5.64-1.61 10.23-7.06 12.6-14.95C99.39 83.27 99.51 74.12 99.32 67.16z" fill="#002e6d"/><path d="M96.29 64.3A185.66 185.66 0 0093.2 34.76C91.37 25.13 89.12 15.66 87 6.13a33.29 33.29 0 00-1.31-4A3.1 3.1 0 0081.76.19c-3.3 1.25-5.49 4.31-7.07 8.24s-1.58 8-1.19 12c.73 7.78 1.7 15.5 2.43 23.28.83 8.74 1.67 17.48 2.2 26.27a47.38 47.38 0 01-1 14.84c-1.11 4.31-3.76 5.38-5.8 4.25a7.18 7.18 0 002.38-1.54 2.56 2.56 0 00.33-3c-4.62-8.09-7-14.25-10.34-22.92-3.56-9.18-6.86-18.45-10.37-27.65-1.34-3.52-1.46-7-5.6-7.84A8.3 8.3 0 0041 27.75c-1.42 1-.86 2.74-1 4.18a4.49 4.49 0 000 .82c.06 4.53.24 9.07.14 13.6-.1 5-.31 10-.77 14.93a26.13 26.13 0 01-1.8 7.21S34.64 75 29.84 75a.16.16 0 01-.06-.3c.92-.42 3.41-1.53 4-3.88a.38.38 0 00-.28-.45 1.53 1.53 0 00-.37 0 5.93 5.93 0 01-1.94-.47c-.27-.12-.54-.25-.8-.39L30 69.2c-.14-.09-.29-.22-.44-.3C17.88 59.49 19.47 36.31 16.2 23.11c-.73-3-1.86-5.82-4.3-7.87S6.6 11.9 3.27 12.36c-1.9.25-3 1.3-3.12 2.88A20.38 20.38 0 000 18.64c.63 7.49 1.13 15 2 22.46A108.12 108.12 0 007.19 62.94c2.06 6 4.68 11.68 9.11 16.38 8.31 8.79 20.18 6.52 26-2.27 3.63-5.46 4.48-11.68 4.68-18 .06-2 .13-4 .19-6l.47-.07c.22.52.47 1 .65 1.56 2.08 6.28 4.07 12.6 6.26 18.84 1.22 3.49 2.47 7 3.81 10.39 0 0 1.1 2.92 1.1 2.92 2.33 6.7 4.27 9.93 9 14.11 8.63 7.58 20.55 3.91 25.15-11.38C96.12 81.15 96.53 72.77 96.29 64.3zM266.45 28.13a36.06 36.06 0 00-11.66 2.08c-.94.32-1.86.67-2.77 1s-1.81.78-2.69 1.21c-1.76.85-3.49 1.78-5.16 2.79a73.89 73.89 0 00-8.26 5.87c-.48-1-1-2-1.45-3.06-1.64-3.42-3.37-6.8-5.29-10.12l-.26-.45a3.78 3.78 0 00-7 2.33 14.22 14.22 0 01-.07 4.07 11.93 11.93 0 01-.48 2 12.82 12.82 0 01-.79 1.82 11.73 11.73 0 01-2.29 3.06 8.78 8.78 0 01-2.91 1.88 5.41 5.41 0 01-2.8.31 4.27 4.27 0 01-2.11-1.05l-.23-.21-.12-.11-.06-.08-.11-.12-.22-.22-.06-.05c.17.14 0 0 .08.06h0l0 0-.06-.08-.12-.15a9.2 9.2 0 01-.87-1.27 10 10 0 01-.66-1.4 9.11 9.11 0 01-.47-1.48 11.86 11.86 0 01-.28-1.56 10.66 10.66 0 01-.08-1.6 12.55 12.55 0 01.4-3.13c.13-.51.31-1 .48-1.47a11.3 11.3 0 01.67-1.35 8.49 8.49 0 01.82-1.23c.16-.18.3-.39.48-.56l.25-.28.27-.25a6.8 6.8 0 01.57-.5l.46-.4.53-.31.27-.15.07 0-.16.07h0l.08-.05.33-.2.33-.17a10.68 10.68 0 011.33-.55 7.9 7.9 0 011.4-.29 8.52 8.52 0 013.29.37 13.57 13.57 0 011.83.72c.31.14.62.3.93.46l.45.25a2.63 2.63 0 00.4.21l1.09.38a2.4 2.4 0 002.9-3.35c-.15-.29-.25-.51-.38-.74s-.25-.44-.38-.65a11.94 11.94 0 00-.85-1.25 14.73 14.73 0 00-2.1-2.24 14.24 14.24 0 00-5.85-3.1 15 15 0 00-7-.08l-.85.2-.81.25-1.42.51c-.53.24-1.18.54-1.69.82a14.5 14.5 0 00-1.46.88l-.71.49-.68.53c-.45.35-.87.75-1.29 1.15a19.26 19.26 0 00-2.24 2.62A20.19 20.19 0 00196 27.23a21 21 0 00-.81 6.48c-.71 1.32-1.44 2.63-2.21 3.92-.51.86-1 1.71-1.56 2.56-.33-.67-.66-1.34-1-2-.46-.93-.91-1.86-1.39-2.78s-.92-1.85-1.41-2.77c-.95-1.84-2-3.67-3-5.48l-.3-.52a4.56 4.56 0 00-8.48 2.79 17.53 17.53 0 01-.06 4.8 15.22 15.22 0 01-.55 2.31 16.38 16.38 0 01-.9 2.16 14.64 14.64 0 01-2.64 3.66 10.86 10.86 0 01-3.4 2.34 6.73 6.73 0 01-3.36.55 4.88 4.88 0 01-2.58-1.06 4.73 4.73 0 01-.55-.47 1.6 1.6 0 01-.23-.24l-.07-.08-.26-.26-.13-.12v0l.08.07v0l0 0-.15-.17-.27-.36a7.47 7.47 0 01-.51-.74 13.75 13.75 0 01-1.53-3.37 16.8 16.8 0 01-.45-1.86c-.1-.64-.19-1.28-.23-1.92a17.58 17.58 0 010-1.92 16.38 16.38 0 01.2-1.88 14.28 14.28 0 011-3.41 12.53 12.53 0 01.79-1.45 11.14 11.14 0 011-1.26 8.68 8.68 0 011.17-1.09c.22-.17.44-.33.68-.49l.32-.21.12-.08.13-.07.17-.07.16-.08.08 0 .05 0h0c-.23.08-.06 0-.11 0l.18-.09c.12-.07.23-.14.36-.2s.49-.22.75-.32a8.34 8.34 0 011.67-.48 13.21 13.21 0 014.13 0 20.94 20.94 0 012.36.47c.41.1.81.21 1.22.33l.6.18a4.24 4.24 0 00.55.15l1.42.13a2.82 2.82 0 002-.53 2.89 2.89 0 00.65-4c-.22-.31-.37-.54-.56-.78s-.36-.48-.55-.7c-.38-.45-.78-.88-1.19-1.29a20.17 20.17 0 00-2.75-2.26 18.9 18.9 0 00-7-2.92 18.16 18.16 0 00-4.12-.28 19.56 19.56 0 00-4.13.66l-.17 0-.21.07-.56.18c-.39.13-.67.24-1 .36-.64.26-1.28.54-1.9.85a21.2 21.2 0 00-8.85 8.69 25.34 25.34 0 00-1.65 3.7 26 26 0 00-1.19 11.6 25.69 25.69 0 00.76 3.79 25.34 25.34 0 001.31 3.66A23.63 23.63 0 00147.71 47a22.28 22.28 0 002.46 3.13c.46.48.94 1 1.44 1.4l.56.48c-1 2.6-7 5.77-11.36 2.35-4.12-3.25-4-10.7-4.76-16.64-1-8.28-9.07-5.73-8.5-.14s-2.14 23.39-10.24 21.07c-1.93-.56-3.85-3.09-4.4-9.41-1-11.85 5.71-22.3 13.29-18.76.83.39 2.19 1.06 3.29.51a1.75 1.75 0 00.63-2.28 9.19 9.19 0 00-2.6-3.21c-4.88-3.9-9.92-2.54-12.85-1.37a24.77 24.77 0 00-14.49 16.25 25.68 25.68 0 00-.89 11.73 22.94 22.94 0 003.53 9.19A17.4 17.4 0 00109.18 67a11.9 11.9 0 007.59 1.29A15.6 15.6 0 00123 65.76a17.61 17.61 0 003.86-3.7 13.51 13.51 0 002.47-4.83 15.55 15.55 0 004.88 6.09c6.9 4.4 15.84.87 19.48-4.09a25.4 25.4 0 002.7-4.52l.48.23a16.86 16.86 0 008.65 1.29 18.29 18.29 0 007.64-2.78 22.64 22.64 0 005.5-5 26.07 26.07 0 002.44-3.71c.31 1.05.61 2.1.89 3.16.39 1.51.77 3 1.13 4.52l-3.49 4.9-1.75 2.51-.87 1.28-.88 1.32c-.62.91-1.11 1.73-1.65 2.59l-.86 1.41c-.27.47-.54.93-.8 1.4a76.44 76.44 0 00-5.36 11.74 57.52 57.52 0 00-3 12.93 42.42 42.42 0 00-.2 7c0 .6.09 1.2.13 1.8s.14 1.2.25 1.8l.15.91c.06.32.14.66.21 1 .16.75.26 1.12.39 1.63l0 .09.08.25.08.26c0 .18.1.35.16.52.12.35.25.69.38 1a20 20 0 00.93 2 18.93 18.93 0 002.64 3.71 16.57 16.57 0 003.77 3.08 15.48 15.48 0 004.79 1.87 14.9 14.9 0 002.6.31h1.57l.27 0 .55 0a20.54 20.54 0 004.34-.89 21.34 21.34 0 004.08-1.84 20.53 20.53 0 003.59-2.67 21.31 21.31 0 002.92-3.32l.31-.45.34-.53.33-.54.16-.27.11-.19.36-.66 0 0 .12-.24.06-.1.1-.21.2-.42a34.38 34.38 0 002.49-6.92c4-16.87-1.13-36.8-7.56-52.15.89-1.65 1.76-3.31 2.6-5a18.46 18.46 0 004.47 5.38l.72.58.63.44c.14.1.29.21.43.29l.39.25c.26.16.53.3.8.44a14.15 14.15 0 007.27 1.58 14.74 14.74 0 006.65-2.07A18.35 18.35 0 00224 45.94a20 20 0 001.76-2.48c.2-.31.37-.63.55-1q.88 3 1.64 6c-.51.54-1 1.08-1.52 1.64-1.3 1.46-2.56 3-3.76 4.55-.59.79-1.18 1.61-1.75 2.47-.29.43-.57.85-.87 1.35l-.78 1.3a65.22 65.22 0 00-5 10.88 49.51 49.51 0 00-2.74 12.1 35.67 35.67 0 00.05 6.61c.07.57.13 1.13.24 1.7l.15.86.21 1c.08.36.14.55.2.78l.08.33 0 .17.11.38a16.84 16.84 0 00.76 2 15.68 15.68 0 005.73 6.76 13.62 13.62 0 004.59 1.89c.41.08.83.15 1.25.19l.62.06c.22 0 .4 0 .68 0h1.18l1-.1a17.52 17.52 0 0011-5.78c.24-.26.46-.53.68-.81a9.94 9.94 0 00.62-.83c.2-.29.39-.54.61-.9l.3-.52c.1-.16.23-.38.26-.45a30.47 30.47 0 002.52-6.41 40.19 40.19 0 001.14-6.46 55.84 55.84 0 00-.29-12.37A78.31 78.31 0 00243 59.27a90.93 90.93 0 00-3.33-9.66l1-1a81.09 81.09 0 017.85-6.87 56.33 56.33 0 018.72-5.55 38 38 0 019.62-3.4h0a2.32 2.32 0 00-.46-4.6zM187 103.4c-2.67 2.66-11 4.72-11-10a33.35 33.35 0 011.73-10.63A97.72 97.72 0 01183.89 68l0 0a12.6 12.6 0 001.41-4.88 17.07 17.07 0 00.09-2c0-.5-.18-1.29.13-1.7.05-.08.12-.09.22 0a2.22 2.22 0 01.21.56c.12.36.3 1 .44 1.46.19.65.19.75.37 1.31.63 2.75 2 8.39 2.92 14.79C190.66 84.81 192.87 97.59 187 103.4zm45.83-15.74c-1.23 3.06-3.45 6.69-7.12 5.27-3.37-1.32-2.85-7.72-2.79-9.41A40.75 40.75 0 01224.5 74a54.45 54.45 0 013.64-9.36l.29-.56 0-.07 0 0s0-.06 0 0l.08-.15h0a13.58 13.58 0 00.62-3c.06-.67.09-1.34.09-2 0-.49-.18-1.29.12-1.7.06-.08.13-.08.22 0a2.41 2.41 0 01.22.56c.11.36.3 1 .43 1.47.2.64.2.74.37 1.29h0C234.55 73.08 234.34 84 232.86 87.66z" fill="#fff"/><path d="M226.92,14.52v0a5.06,5.06,0,0,1,10.11,0v0a5.06,5.06,0,0,1-10.11,0Zm9.52,0v0a4.47,4.47,0,1,0-8.93,0v0a4.47,4.47,0,1,0,8.93,0Zm-6.55-2.84h2.39a2.25,2.25,0,0,1,1.66.59,1.58,1.58,0,0,1,.45,1.17v0a1.68,1.68,0,0,1-1.16,1.66L234.54,17h-1.38L232,15.31h-.94V17h-1.19Zm2.38,2.63c.6,0,.92-.32.92-.77v0c0-.52-.37-.78-.95-.78h-1.16v1.58Z" fill="#fff"/></svg>